<?xml version="1.0" standalone="no"?>
<!DOCTYPE svg PUBLIC "-//W3C//DTD SVG 20010904//EN"
 "http://www.w3.org/TR/2001/REC-SVG-20010904/DTD/svg10.dtd">
<svg version="1.0" xmlns="http://www.w3.org/2000/svg"
 width="400.000000pt" height="400.000000pt" viewBox="0 0 400.000000 400.000000"
 preserveAspectRatio="xMidYMid meet">
<metadata>
Created by potrace 1.11, written by Peter Selinger 2001-2013
</metadata>
<g transform="translate(0.000000,400.000000) scale(0.100000,-0.100000)"
fill="#000000" stroke="none">
<path d="M1561 3862 c-6 -2 -9 -7 -7 -11 2 -3 -28 -8 -67 -9 -39 -2 -79 -8
-90 -14 -11 -5 -17 -6 -14 -1 4 5 0 10 -8 10 -8 0 -12 -4 -9 -9 3 -4 -1 -9 -8
-10 -14 -1 -53 -5 -78 -7 -13 -1 -13 -2 0 -11 15 -9 -2 -13 -62 -13 -10 0 -15
-3 -13 -7 6 -9 -19 -20 -46 -20 -11 0 -17 -4 -14 -10 3 -5 -7 -13 -22 -16 -15
-4 -34 -13 -41 -20 -7 -7 -20 -10 -29 -7 -12 5 -15 2 -10 -10 5 -12 1 -17 -13
-17 -11 0 -20 -4 -20 -10 0 -5 -11 -12 -25 -16 -14 -3 -25 -13 -25 -21 0 -8
-4 -12 -8 -9 -9 6 -48 -35 -44 -46 1 -5 -5 -8 -13 -8 -8 0 -15 -4 -15 -10 0
-5 -7 -10 -15 -10 -8 0 -15 -7 -15 -15 0 -8 -4 -15 -10 -15 -5 0 -10 -7 -10
-16 0 -10 -6 -14 -15 -10 -10 4 -15 -1 -15 -15 0 -11 -4 -18 -9 -15 -11 7 -23
-22 -15 -35 3 -5 -2 -9 -10 -9 -8 0 -18 -9 -21 -20 -4 -12 -11 -17 -18 -13 -7
4 -5 -2 3 -12 9 -11 10 -16 3 -11 -9 5 -13 0 -13 -13 0 -12 -5 -20 -11 -18 -6
1 -13 -8 -15 -21 -2 -13 -11 -30 -19 -39 -8 -8 -13 -19 -9 -24 3 -5 -3 -24
-14 -42 -10 -17 -17 -40 -14 -51 2 -11 0 -16 -6 -12 -6 3 -13 2 -16 -3 -4 -5
2 -12 11 -14 17 -4 17 -5 0 -6 -10 0 -17 -7 -16 -13 1 -7 1 -28 0 -46 -1 -24
-5 -31 -13 -26 -8 5 -7 0 2 -11 9 -11 10 -16 3 -11 -14 8 -14 3 -16 -101 0
-30 -5 -53 -11 -53 -7 0 -8 -3 -1 -8 12 -8 14 -102 2 -102 -4 0 -5 -6 0 -12 7
-12 9 -42 12 -176 1 -18 5 -31 9 -28 8 4 10 -11 12 -69 1 -16 7 -36 13 -44 10
-12 9 -13 -3 -6 -13 7 -13 6 -2 -7 16 -20 25 -61 11 -53 -5 4 -6 11 -3 17 4 6
3 8 -3 5 -5 -3 -9 -23 -8 -43 0 -21 -4 -38 -12 -41 -8 -3 -13 -22 -13 -44 0
-21 -5 -39 -10 -39 -7 0 -7 -6 0 -19 7 -14 7 -22 -2 -27 -6 -4 -8 -3 -4 4 3 6
3 13 -2 16 -5 3 -9 -7 -9 -22 -2 -90 -7 -140 -15 -136 -11 7 -10 12 -13 -163
-1 -89 1 -153 7 -153 5 0 6 -5 2 -12 -11 -17 -12 -68 -2 -62 5 3 5 10 2 16 -4
7 -2 8 4 4 9 -5 9 -13 1 -28 -8 -15 -8 -19 0 -14 10 7 12 -6 14 -91 1 -14 5
-19 11 -13 8 5 12 -7 14 -38 2 -26 7 -48 13 -50 5 -2 9 -13 9 -23 0 -14 4 -18
13 -13 8 5 8 2 -2 -9 -12 -15 -11 -17 3 -17 10 0 16 -9 16 -24 0 -13 7 -26 15
-30 8 -3 15 -9 14 -13 -4 -23 2 -43 11 -38 6 4 10 -5 10 -19 0 -14 5 -26 11
-26 5 0 7 6 3 13 -4 7 -3 9 2 4 9 -9 10 -13 13 -43 1 -11 7 -14 17 -10 12 4
15 2 10 -9 -3 -9 0 -15 9 -15 8 0 15 -5 15 -11 0 -5 -5 -7 -12 -3 -7 4 -8 3
-4 -4 4 -7 14 -12 22 -12 8 0 12 -4 9 -10 -3 -5 -1 -10 4 -10 6 0 11 -7 11
-15 0 -8 5 -15 11 -15 5 0 8 4 5 9 -4 5 -1 11 6 13 7 3 9 12 5 22 -4 9 -12 14
-17 11 -6 -4 -10 -3 -9 2 4 24 -3 43 -16 43 -10 0 -15 10 -15 33 0 24 -3 28
-10 17 -7 -12 -10 -8 -10 15 0 31 -20 75 -20 46 0 -8 -3 -11 -6 -8 -4 4 -1 14
7 24 9 11 10 14 2 9 -13 -7 -19 28 -13 78 1 12 -2 16 -11 11 -8 -6 -10 -4 -3
6 14 23 13 40 -2 46 -10 4 -11 10 -3 24 6 13 6 19 -1 19 -5 0 -10 5 -10 11 0
5 6 7 13 3 9 -6 9 -4 1 7 -9 12 -10 28 -5 70 0 5 5 8 10 5 11 -7 9 13 -3 33
-6 9 -5 12 2 7 6 -4 11 1 11 11 2 98 5 132 13 130 6 -1 12 18 14 42 2 25 7 47
11 50 4 3 10 17 12 31 2 14 5 32 6 40 2 8 4 17 4 20 1 3 6 -2 11 -10 5 -8 15
-15 21 -15 7 0 14 -11 16 -25 2 -14 8 -26 13 -28 6 -2 10 -12 10 -22 0 -10 5
-22 12 -26 7 -5 8 -2 3 7 -5 10 -5 11 3 4 5 -5 12 -19 14 -30 2 -11 10 -19 17
-17 8 2 11 -3 8 -12 -4 -9 0 -22 8 -30 8 -8 15 -17 15 -21 0 -3 12 -18 28 -33
15 -16 28 -35 30 -43 2 -8 10 -18 18 -22 8 -5 11 -13 8 -19 -5 -7 -2 -8 5 -4
8 5 14 0 18 -13 3 -12 12 -21 19 -21 8 0 14 -9 14 -19 0 -11 10 -28 23 -38 13
-10 26 -26 30 -36 3 -9 10 -16 14 -15 4 2 8 1 8 -2 0 -10 96 -100 107 -100 6
0 9 -3 6 -6 -8 -7 28 -44 42 -44 6 0 10 -7 10 -15 0 -8 6 -14 13 -13 6 2 11
-3 10 -9 -2 -7 8 -15 22 -19 14 -3 22 -10 19 -15 -5 -8 9 -13 29 -10 4 0 7 -6
7 -14 0 -8 6 -15 14 -15 8 0 17 -7 20 -16 3 -8 10 -12 16 -9 5 3 10 -1 10 -10
0 -9 5 -13 10 -10 6 3 10 1 10 -5 0 -7 7 -10 15 -6 9 3 15 0 15 -8 0 -7 15
-21 34 -31 19 -11 32 -23 30 -27 -3 -5 -2 -8 3 -7 24 4 43 -3 43 -16 0 -9 9
-15 25 -15 16 0 25 -6 25 -15 0 -8 3 -14 8 -14 19 3 42 -2 42 -9 0 -9 -15 -12
-57 -13 -13 -1 -21 -5 -18 -9 6 -9 -19 -20 -45 -20 -10 0 -29 -6 -43 -13 -14
-7 -55 -13 -91 -13 -36 1 -66 -2 -66 -6 0 -4 -7 -4 -17 -1 -9 4 -14 2 -10 -3
3 -6 -4 -11 -16 -11 -17 -2 -19 0 -7 7 8 5 10 10 5 10 -6 0 -17 -6 -23 -12
-10 -10 -17 -10 -33 0 -12 8 -18 9 -14 3 4 -7 -4 -11 -19 -11 -14 0 -26 5 -26
10 0 6 -7 10 -16 10 -8 0 -13 -4 -10 -8 2 -4 -5 -9 -17 -9 -17 -2 -19 0 -7 7
11 7 4 10 -25 11 -86 3 -99 5 -103 17 -2 7 -18 12 -35 12 -20 0 -42 9 -59 25
-15 14 -30 25 -33 25 -3 0 -14 9 -25 20 -12 12 -24 19 -28 17 -7 -4 -42 28
-42 38 0 3 -3 5 -7 5 -5 0 -9 -11 -11 -25 -2 -14 1 -25 7 -25 22 0 26 -3 38
-29 6 -14 12 -20 12 -13 1 6 6 12 12 12 5 0 7 -4 4 -10 -3 -5 3 -10 14 -10 14
0 19 -5 15 -15 -4 -8 -1 -15 6 -15 6 0 18 -7 26 -15 9 -8 24 -15 35 -15 11 0
18 -4 15 -8 -2 -4 4 -14 16 -21 11 -7 17 -8 14 -2 -4 7 -1 8 8 5 9 -3 13 -10
10 -15 -4 -7 19 -12 42 -8 3 1 20 -12 36 -28 17 -15 28 -22 24 -15 -4 6 -2 12
3 12 6 0 11 -4 11 -10 0 -5 11 -10 25 -10 14 0 25 -5 25 -11 0 -5 5 -7 10 -4
6 3 10 0 10 -7 0 -10 2 -10 9 1 5 8 10 9 12 3 2 -6 23 -13 47 -14 29 -2 41 -7
37 -16 -6 -16 12 -16 18 1 4 9 8 9 14 1 11 -15 389 -18 398 -3 4 5 12 6 18 2
11 -8 20 -8 52 -4 6 1 3 6 -5 11 -12 8 -11 10 5 7 11 -1 26 -7 34 -11 10 -6
12 -5 7 2 -6 11 32 17 91 15 7 0 11 4 10 10 -1 6 15 11 38 11 22 1 46 8 53 16
8 8 11 9 7 3 -6 -13 12 -17 72 -16 12 0 21 -4 20 -10 -2 -11 25 -18 68 -18 39
0 67 -8 60 -19 -2 -4 14 -8 38 -8 83 0 108 -2 103 -10 -2 -4 6 -8 19 -8 13 0
21 4 19 8 -3 4 -1 8 5 8 5 0 11 -6 14 -12 3 -10 9 -10 27 0 12 7 25 11 28 8 3
-3 0 -6 -6 -6 -7 0 -12 -3 -12 -7 0 -5 27 -6 60 -5 37 2 60 8 60 15 0 7 5 5
10 -3 6 -10 10 -11 10 -2 0 6 5 12 11 12 5 0 7 -6 3 -12 -6 -10 -5 -10 7 -1 8
6 44 14 79 16 38 2 64 8 63 14 -1 6 3 10 10 10 50 -1 97 5 93 12 -7 10 60 25
74 16 6 -3 10 1 10 9 0 14 18 21 43 17 4 -1 10 6 13 14 4 9 19 15 36 15 23 0
28 3 20 13 -8 9 -4 12 15 14 14 0 29 6 33 13 4 6 13 12 21 13 20 4 59 39 53
49 -3 5 -2 7 3 6 16 -5 56 31 50 45 -4 11 0 13 14 10 13 -4 19 0 19 11 0 9 5
16 11 16 13 0 44 30 44 44 1 6 6 10 13 8 7 -1 12 7 12 18 0 13 5 18 15 13 9
-3 15 -2 14 3 -4 24 2 44 14 42 6 -2 11 5 9 15 -2 10 3 17 13 17 9 0 15 9 15
25 0 14 7 28 15 31 8 4 15 17 15 31 0 13 4 21 10 18 9 -6 15 16 11 39 -1 4 5
19 14 32 8 13 15 32 15 44 0 11 4 20 9 20 5 0 12 7 15 16 6 15 4 15 -11 3 -17
-13 -17 -13 -1 6 9 11 18 36 20 55 2 19 8 34 13 33 6 -1 10 20 9 48 0 29 4 49
10 49 6 0 5 4 -3 9 -10 6 -10 13 -3 28 8 14 8 23 1 30 -7 7 -5 16 6 27 9 9 12
16 6 16 -6 0 -11 5 -11 11 0 5 4 8 8 5 4 -2 8 4 8 14 0 10 -3 17 -6 15 -4 -2
-7 2 -7 10 0 8 4 12 9 9 4 -3 8 0 8 5 0 6 -4 11 -10 11 -5 0 -10 5 -10 11 0 5
4 8 8 5 5 -3 9 1 9 9 0 8 -4 12 -9 9 -13 -8 -10 10 5 25 7 9 7 11 1 8 -7 -4
-15 0 -18 9 -3 8 -2 12 4 9 6 -3 10 -2 10 4 0 5 -6 12 -12 14 -10 4 -9 8 2 16
8 6 10 11 4 11 -6 0 -11 17 -12 37 -1 20 -7 40 -14 45 -10 6 -9 8 2 8 13 0 13
2 1 9 -8 5 -14 24 -13 42 0 19 -4 36 -9 40 -10 6 -16 40 -21 105 -1 19 -7 30
-13 27 -7 -2 -12 8 -12 27 0 16 5 30 11 30 7 0 7 3 1 8 -16 11 -18 35 -2 29 7
-3 14 0 14 6 1 7 2 40 3 75 2 34 7 65 13 69 6 3 7 1 3 -5 -4 -7 -3 -19 2 -28
7 -12 9 -6 7 23 -1 22 -5 44 -8 50 -4 7 -3 14 3 18 13 8 11 336 -3 353 -7 8
-7 16 -1 20 5 4 10 13 12 21 2 11 0 12 -10 4 -10 -9 -14 -2 -16 35 -2 26 -8
50 -15 54 -8 5 -8 8 -1 8 6 0 11 6 11 14 0 8 -6 12 -12 9 -8 -2 -12 6 -13 24
0 48 -2 54 -12 48 -5 -3 -10 3 -10 14 0 11 -4 22 -9 26 -5 3 -12 18 -16 34 -3
16 -13 32 -21 35 -9 3 -12 11 -8 17 4 7 -1 18 -10 25 -9 6 -18 21 -19 33 -1
12 -7 21 -14 21 -7 0 -13 7 -13 15 0 8 -4 15 -10 15 -5 0 -12 11 -16 25 -3 14
-13 25 -21 25 -9 0 -13 6 -9 15 3 8 1 15 -4 15 -6 0 -10 -5 -10 -12 0 -15 -11
-4 -14 15 -2 18 -25 41 -51 51 -16 6 -17 9 -5 16 12 8 10 10 -8 10 -15 0 -21
4 -16 12 4 7 3 8 -5 4 -7 -4 -15 2 -20 16 -6 13 -10 17 -10 11 -1 -7 -6 -13
-12 -13 -5 0 -8 4 -4 9 3 5 -4 12 -15 16 -11 4 -18 11 -15 16 5 8 -16 14 -37
10 -5 0 -8 6 -8 15 0 10 -6 14 -14 11 -8 -3 -17 0 -19 7 -3 7 -19 16 -37 19
-17 4 -29 10 -26 15 4 7 -10 11 -51 14 -7 1 -13 6 -13 11 0 5 -7 6 -16 3 -8
-3 -12 -2 -9 4 4 6 -9 10 -30 10 -22 0 -34 4 -30 10 4 6 -7 11 -24 11 -43 2
-48 3 -56 11 -4 4 -14 4 -23 1 -8 -4 -13 -2 -10 3 8 11 -14 13 -247 12 -248 0
-246 0 -235 -13 6 -7 2 -11 -10 -11 -10 0 -16 5 -12 11 4 7 1 7 -9 -1 -8 -5
-30 -11 -49 -13 -19 -2 -41 -8 -48 -14 -17 -14 -122 -13 -131 1 -3 6 -26 12
-51 14 -25 2 -48 7 -52 12 -7 10 -44 15 -125 16 -38 1 -55 5 -63 18 -10 15
-11 15 -6 0 5 -17 -9 -19 -34 -3 -15 9 -136 15 -159 7z m29 -12 c0 -5 -2 -10
-4 -10 -3 0 -8 5 -11 10 -3 6 -1 10 4 10 6 0 11 -4 11 -10z m45 -8 c-3 -3 -11
0 -18 7 -9 10 -8 11 6 5 10 -3 15 -9 12 -12z m75 8 c0 -5 -2 -10 -4 -10 -3 0
-8 5 -11 10 -3 6 -1 10 4 10 6 0 11 -4 11 -10z m-257 -171 c38 -2 71 -8 74
-13 4 -5 0 -6 -7 -1 -9 5 -11 4 -6 -4 6 -9 14 -8 34 5 22 14 24 14 14 2 -11
-14 -7 -16 30 -17 64 -3 67 -4 65 -15 -1 -5 8 -10 21 -11 12 0 22 -4 23 -10 1
-11 -32 -25 -44 -18 -4 2 -6 -1 -5 -9 2 -8 -7 -13 -24 -13 -22 1 -25 -2 -15
-14 9 -12 9 -13 0 -7 -7 4 -13 3 -13 -3 0 -6 -7 -8 -15 -5 -10 4 -15 0 -15
-11 0 -9 -4 -13 -10 -10 -5 3 -10 2 -10 -4 0 -6 -7 -8 -15 -4 -10 3 -15 0 -13
-8 2 -7 -2 -13 -8 -14 -6 0 -18 -8 -28 -18 -10 -9 -22 -15 -27 -11 -5 3 -12
-2 -15 -10 -3 -9 -12 -16 -20 -16 -8 0 -14 -7 -14 -16 0 -8 -4 -12 -10 -9 -5
3 -10 0 -10 -8 0 -8 -9 -17 -21 -20 -14 -4 -18 -10 -13 -19 5 -9 2 -8 -11 2
-11 9 -16 10 -11 3 4 -8 1 -13 -8 -13 -9 0 -15 -6 -13 -12 1 -7 -4 -12 -11
-10 -8 1 -16 -7 -19 -18 -3 -11 -9 -17 -14 -14 -5 3 -12 -2 -15 -10 -3 -9 -13
-16 -21 -16 -8 0 -12 -4 -9 -8 6 -9 -29 -42 -44 -42 -6 0 -10 -5 -10 -11 0
-14 -25 -39 -39 -39 -6 0 -11 -7 -11 -15 0 -8 -7 -15 -16 -15 -8 0 -12 -5 -9
-10 3 -6 -1 -13 -9 -16 -9 -3 -16 -13 -16 -21 0 -9 -6 -13 -15 -9 -10 4 -15
-1 -15 -15 0 -11 -7 -22 -15 -25 -8 -4 -15 -12 -15 -19 0 -7 -7 -16 -16 -19
-8 -3 -12 -10 -9 -16 3 -5 -1 -10 -9 -10 -9 0 -16 -9 -16 -20 0 -13 -5 -18
-15 -13 -9 3 -15 2 -14 -3 4 -21 -2 -35 -11 -29 -5 3 -10 -3 -10 -15 0 -11 -7
-23 -15 -26 -8 -4 -15 -12 -15 -19 0 -7 -5 -15 -11 -17 -5 -2 -12 -12 -13 -23
-2 -11 -8 -19 -14 -18 -6 1 -13 -11 -17 -27 -4 -17 -10 -28 -13 -26 -4 2 -12
-2 -19 -9 -8 -9 -9 -15 -2 -19 5 -2 4 -3 -2 -2 -7 1 -14 20 -16 41 -1 21 -7
43 -13 49 -5 5 -10 15 -10 21 0 5 5 3 10 -5 8 -13 10 -13 10 2 0 9 -4 18 -10
20 -5 2 -11 17 -12 33 -1 17 -6 36 -12 44 -8 11 -8 13 2 7 6 -4 12 -2 12 3 0
6 -5 11 -11 11 -8 0 -7 5 1 15 10 13 11 18 1 28 -10 9 -11 8 -5 -8 4 -11 4
-17 0 -13 -13 11 -17 90 -6 103 8 9 8 15 0 20 -8 5 -8 11 1 21 6 8 7 14 2 14
-5 0 -9 11 -9 24 0 14 4 22 8 20 4 -3 8 -3 8 0 0 2 3 13 7 23 6 16 5 17 -13 3
-18 -14 -18 -14 -5 3 7 9 10 17 6 17 -4 0 -3 6 2 13 5 6 10 26 12 42 2 17 7
32 12 33 5 2 7 8 3 13 -3 5 -1 9 4 9 5 0 8 11 7 25 -2 14 2 28 7 32 7 4 8 1 3
-7 -5 -8 -4 -11 2 -7 16 10 22 54 9 68 -8 9 -6 9 12 0 20 -11 22 -9 22 14 0
15 4 24 10 20 6 -3 10 1 10 10 0 8 7 18 15 21 8 4 15 12 15 20 0 8 7 14 15 14
8 0 15 5 15 11 0 5 5 7 10 4 6 -3 10 1 10 10 0 11 5 15 15 11 9 -3 15 0 15 9
0 10 10 15 28 15 20 0 23 3 12 10 -11 7 -4 11 28 16 23 3 39 10 36 15 -5 9 30
14 69 11 19 -2 24 14 6 20 -7 2 21 5 62 6 40 2 74 4 75 5 3 2 81 0 177 -4z
m1502 -10 c4 -5 12 -9 18 -9 8 0 8 3 -2 9 -9 6 -5 9 13 9 15 0 29 -4 32 -9 3
-5 -3 -6 -13 -3 -13 4 -14 3 -5 -4 8 -5 33 -9 58 -8 33 1 44 -3 45 -14 0 -11
2 -11 6 -2 3 8 9 10 16 4 7 -5 25 -12 40 -16 15 -4 26 -10 23 -14 -2 -4 4 -8
15 -9 10 -1 30 -14 44 -29 16 -17 25 -22 26 -13 0 10 2 11 6 2 2 -7 11 -13 19
-13 8 0 14 -5 14 -10 0 -6 16 -26 36 -45 21 -20 32 -40 28 -46 -4 -8 -3 -9 4
-5 7 4 12 1 12 -8 0 -9 5 -16 10 -16 6 0 10 -7 10 -15 0 -8 4 -15 9 -15 10 0
17 -18 25 -64 3 -16 9 -32 13 -35 5 -3 9 -26 11 -50 1 -25 8 -48 14 -53 10 -6
9 -8 -2 -8 -13 0 -13 -1 0 -10 13 -8 13 -13 2 -31 -8 -12 -9 -18 -2 -14 8 5
10 -17 9 -74 -1 -48 -5 -78 -11 -75 -5 4 -9 -2 -8 -12 1 -11 2 -21 1 -24 -1
-3 -3 -29 -4 -58 -1 -29 -7 -56 -14 -60 -7 -4 -13 -29 -15 -55 -3 -50 -6 -54
-27 -34 -11 10 -12 9 -6 -3 6 -11 5 -12 -4 -4 -7 6 -14 20 -16 30 -1 11 -7 18
-12 17 -5 -1 -10 8 -10 19 -1 12 -7 26 -14 32 -9 8 -10 7 -4 -3 5 -9 4 -12 -3
-7 -7 4 -12 14 -12 22 0 8 -11 27 -25 42 -14 15 -25 33 -25 40 0 7 -7 15 -15
18 -8 4 -13 10 -10 14 3 5 -2 15 -10 23 -8 9 -15 20 -15 26 0 6 -7 11 -15 11
-8 0 -15 5 -15 10 0 6 -11 21 -25 34 -14 13 -25 29 -25 36 0 7 -7 10 -16 6
-15 -6 -15 -4 -3 11 9 11 10 14 2 9 -8 -4 -13 -2 -13 4 0 6 -5 8 -12 4 -9 -5
-8 -2 1 9 12 15 12 17 -3 11 -10 -4 -16 -1 -16 9 0 8 -10 17 -22 21 -19 5 -21
8 -8 16 13 8 13 10 -1 10 -9 0 -25 11 -35 25 -10 14 -25 25 -32 25 -9 0 -12 6
-8 16 3 8 2 12 -3 9 -5 -3 -12 -1 -16 4 -3 6 -13 7 -23 4 -14 -5 -13 -2 3 11
11 10 14 15 7 11 -7 -3 -15 1 -18 10 -6 13 -8 14 -15 3 -7 -10 -9 -8 -9 6 0
12 -5 16 -15 12 -8 -3 -14 -2 -12 2 3 10 -40 52 -54 52 -5 0 -7 5 -4 10 3 6
-1 10 -9 10 -9 0 -16 8 -16 18 0 14 -2 15 -10 2 -6 -10 -10 -11 -10 -2 0 6 -7
12 -15 12 -8 0 -15 7 -15 15 0 8 -7 15 -15 15 -8 0 -15 5 -15 10 0 6 -7 10
-15 10 -8 0 -15 3 -15 8 0 9 -62 46 -72 44 -5 -1 -8 5 -8 13 0 14 -18 20 -49
16 -7 -2 -10 2 -6 8 3 6 -1 14 -9 17 -33 13 -16 30 31 33 26 1 50 7 54 12 3 5
36 11 72 13 37 1 70 6 75 11 4 4 2 5 -5 1 -6 -3 -14 -3 -17 2 -2 4 40 9 94 9
55 1 102 -3 105 -8z m-810 -253 c15 -14 36 -26 48 -28 12 -2 21 -9 20 -16 -2
-6 0 -11 5 -10 17 5 52 -14 46 -24 -5 -7 -1 -9 9 -5 11 4 17 1 17 -8 0 -8 5
-15 11 -15 5 0 7 6 3 13 -4 6 3 2 17 -10 46 -43 72 -63 81 -63 5 0 6 -4 3 -10
-3 -5 1 -10 10 -10 16 0 44 -22 108 -85 17 -16 27 -23 23 -15 -5 9 -2 8 7 -2
8 -10 18 -14 23 -10 4 4 2 -1 -5 -11 -12 -15 -12 -17 2 -11 9 3 23 -3 33 -15
10 -11 22 -17 28 -14 6 3 8 3 4 -2 -11 -11 12 -36 25 -28 5 3 7 2 4 -4 -6 -10
33 -49 46 -45 4 1 6 -1 5 -5 -4 -10 39 -53 52 -53 5 0 9 -6 7 -12 -1 -7 4 -12
10 -11 7 2 12 0 11 -5 -2 -4 12 -22 30 -40 18 -18 29 -38 26 -44 -4 -7 -2 -8
4 -4 7 4 17 -3 24 -18 6 -14 18 -26 25 -26 8 0 11 -4 8 -10 -3 -5 1 -10 10
-10 9 0 13 -5 10 -10 -3 -6 1 -13 9 -16 9 -3 16 -12 16 -20 0 -8 7 -14 15 -14
8 0 15 -9 15 -21 0 -11 5 -17 10 -14 9 6 14 -8 11 -27 0 -5 6 -8 14 -8 8 0 15
-9 15 -20 0 -13 5 -18 16 -13 11 4 15 1 12 -13 -2 -11 2 -18 7 -17 6 1 12 -8
12 -19 1 -12 7 -26 14 -32 9 -8 10 -7 6 7 -4 11 -3 16 3 12 6 -3 10 -13 10
-22 0 -9 8 -22 18 -30 10 -8 11 -11 2 -7 -13 7 -13 6 0 -12 8 -10 20 -22 27
-27 7 -4 9 -15 6 -24 -5 -12 -2 -15 8 -11 10 4 15 -1 17 -15 0 -12 6 -23 12
-25 5 -2 10 -8 10 -14 0 -6 8 -17 18 -25 9 -8 11 -12 5 -8 -8 4 -13 -1 -14
-14 -2 -34 -4 -39 -13 -48 -5 -4 -6 -3 -2 4 3 6 2 15 -4 18 -6 4 -10 3 -9 -2
5 -28 -3 -53 -17 -53 -8 0 -13 -4 -10 -9 3 -5 -3 -20 -14 -33 -11 -14 -16 -28
-13 -32 3 -3 -1 -6 -10 -6 -12 0 -17 -8 -17 -26 0 -14 -4 -23 -10 -19 -6 3
-13 -2 -17 -12 -4 -10 -18 -29 -32 -42 -14 -13 -20 -20 -13 -17 6 4 12 2 12
-3 0 -6 -7 -11 -15 -11 -9 0 -12 -6 -8 -15 3 -10 0 -15 -8 -13 -8 2 -13 -3
-11 -9 1 -7 -4 -13 -12 -13 -7 0 -16 -9 -19 -21 -4 -14 -10 -18 -19 -13 -7 4
-10 3 -5 -1 4 -5 -2 -18 -12 -29 -11 -12 -20 -25 -20 -31 -1 -5 -7 -10 -13
-10 -7 0 -13 -7 -13 -15 -1 -8 -6 -14 -13 -12 -7 1 -12 -4 -12 -12 0 -8 -7
-17 -16 -20 -8 -3 -12 -10 -9 -16 3 -5 -1 -10 -9 -10 -9 0 -16 -7 -16 -15 0
-8 -4 -15 -10 -15 -14 0 -50 -37 -43 -44 4 -3 -1 -6 -10 -6 -10 0 -17 -7 -17
-15 0 -8 -7 -15 -15 -15 -8 0 -15 -7 -15 -15 0 -10 -6 -12 -17 -8 -16 6 -17 5
-3 -12 8 -10 10 -16 3 -12 -6 4 -31 -12 -57 -38 -26 -25 -51 -45 -57 -45 -6 0
-8 -3 -6 -7 2 -5 -4 -16 -15 -25 -12 -12 -18 -14 -18 -5 -1 6 -7 1 -15 -13 -8
-14 -14 -21 -15 -17 0 5 -6 2 -13 -5 -8 -7 -30 -26 -50 -42 -20 -16 -33 -34
-30 -40 4 -6 -1 -5 -11 3 -9 8 -16 10 -14 5 2 -5 -1 -10 -5 -11 -5 -1 -15 -10
-23 -20 -7 -10 -14 -15 -14 -10 0 4 -9 -2 -20 -13 -12 -12 -26 -18 -33 -13 -7
4 -7 0 2 -10 12 -15 12 -17 -2 -11 -9 3 -23 -3 -34 -15 -9 -12 -23 -21 -30
-21 -7 0 -13 -4 -13 -9 0 -5 -11 -12 -25 -15 -14 -4 -23 -11 -20 -16 3 -6 2
-10 -4 -10 -5 0 -12 6 -14 13 -3 7 -6 5 -6 -5 -1 -11 -6 -15 -16 -11 -10 3
-15 0 -13 -8 2 -9 -5 -14 -20 -13 -16 0 -21 -4 -18 -13 6 -15 -48 19 -59 38
-4 5 -11 7 -16 4 -5 -4 -12 1 -15 9 -3 9 -15 16 -26 16 -10 0 -17 4 -13 9 3 5
-5 11 -17 13 -13 2 -22 9 -20 16 1 6 -7 12 -17 12 -10 0 -21 7 -25 15 -3 8
-13 15 -22 15 -9 0 -26 10 -38 23 -12 13 -29 26 -39 30 -9 3 -17 11 -17 17 0
5 -7 10 -15 10 -9 0 -18 7 -21 15 -4 8 -10 12 -15 9 -5 -3 -9 2 -9 10 0 9 -7
16 -15 16 -8 0 -15 7 -15 16 0 10 -6 14 -15 10 -9 -3 -15 0 -15 9 0 13 -12 19
-32 16 -4 0 -5 6 -1 15 3 9 0 14 -8 12 -8 -2 -13 3 -12 9 2 7 -8 15 -22 19
-14 3 -26 10 -26 15 -1 5 -2 14 -3 21 0 6 -8 12 -17 14 -19 2 -59 39 -59 54 0
5 -9 14 -20 20 -12 7 -18 16 -13 23 4 7 0 6 -10 -2 -15 -12 -17 -12 -11 3 4
11 1 16 -12 16 -9 0 -15 3 -12 6 3 3 -5 16 -19 30 -13 13 -21 29 -18 34 3 6
-1 7 -9 4 -10 -4 -16 -1 -16 9 0 8 -7 18 -16 21 -8 3 -12 10 -9 16 3 5 -1 10
-9 10 -9 0 -16 7 -16 15 0 8 -7 15 -15 15 -8 0 -15 6 -15 14 0 8 -5 16 -11 18
-5 2 -12 12 -14 23 -2 11 -4 22 -4 25 -1 3 -6 -2 -11 -10 -8 -12 -10 -11 -10
8 0 13 -6 22 -16 22 -8 0 -13 4 -9 9 3 6 -3 14 -12 20 -14 8 -15 11 -3 11 12
0 11 3 -3 11 -9 6 -15 14 -12 20 4 5 2 9 -4 9 -5 0 -12 -6 -14 -12 -3 -7 -6
-1 -6 13 -1 15 -8 30 -17 33 -8 3 -12 10 -9 16 3 5 -2 10 -12 10 -14 0 -15 2
-5 9 11 7 10 9 -3 15 -9 3 -13 10 -10 16 3 5 -1 10 -9 10 -10 0 -16 9 -16 25
0 16 -6 25 -15 25 -8 0 -15 8 -15 19 0 10 -7 24 -15 31 -8 7 -12 16 -9 21 3 5
-2 9 -10 9 -19 0 -20 11 -3 29 6 8 7 11 1 8 -6 -3 -11 0 -11 8 0 8 4 12 8 9
11 -6 30 31 21 41 -4 5 -1 5 6 1 7 -4 12 -1 12 9 0 10 5 13 13 9 7 -5 6 0 -3
11 -9 11 -10 16 -2 11 8 -5 15 1 21 17 5 13 16 27 25 30 9 4 13 13 10 22 -4
10 0 15 10 15 9 0 15 6 13 13 -1 6 4 11 11 9 8 -1 11 2 8 7 -4 5 -2 12 4 16 6
4 8 11 5 16 -3 5 2 6 11 2 11 -4 15 -3 11 4 -4 6 -1 17 6 25 7 7 16 21 20 31
4 10 11 15 17 12 5 -3 10 2 10 12 0 21 35 55 45 45 4 -4 6 -2 4 3 -4 16 12 45
22 39 5 -3 9 4 9 15 0 12 4 20 8 18 9 -2 72 60 72 71 0 4 9 13 20 20 12 7 18
18 14 24 -4 7 -3 8 4 4 7 -4 12 -2 12 4 0 7 7 10 15 6 8 -3 14 -2 14 2 -3 17
1 35 7 30 7 -8 44 28 44 42 0 6 7 10 15 10 8 0 15 7 15 15 0 8 6 14 13 13 6
-2 11 3 9 10 -1 6 7 12 18 12 14 0 18 5 13 17 -5 12 -2 15 10 10 12 -5 17 -1
17 13 0 13 5 18 15 14 8 -4 15 -1 15 5 0 6 11 17 25 23 14 6 25 18 25 27 0 14
2 14 10 1 9 -13 10 -13 11 0 1 8 1 19 0 24 -1 5 5 6 14 3 9 -4 15 -1 15 8 0 8
7 15 15 15 8 0 15 4 15 9 0 5 9 13 20 16 11 4 17 11 14 17 -4 6 -3 8 3 5 5 -4
19 3 31 13 12 11 26 20 32 20 5 0 10 4 10 10 0 5 11 12 25 16 14 3 25 12 25
20 0 8 6 11 15 8 9 -4 15 0 15 10 0 10 9 16 24 16 13 0 26 7 30 15 3 8 15 15
26 15 12 0 18 5 15 10 -6 9 7 14 21 8 3 -2 10 5 15 15 14 24 33 21 64 -7z
m1277 -1500 c6 4 6 -2 -1 -14 -14 -27 -14 -32 2 -32 12 0 18 -27 20 -87 1 -12
3 -21 7 -21 18 2 21 -4 9 -19 -8 -9 -9 -14 -3 -10 8 4 12 -11 13 -51 0 -31 6
-58 11 -60 6 -2 10 -8 10 -13 0 -6 -4 -8 -8 -5 -5 3 -9 -1 -9 -9 0 -8 4 -12 9
-9 4 3 8 -40 8 -96 0 -78 -3 -99 -12 -94 -8 5 -7 0 2 -11 9 -11 10 -16 3 -11
-10 5 -13 -4 -14 -36 -1 -24 -1 -47 0 -52 1 -5 -4 -6 -12 -3 -7 3 -14 -1 -14
-8 0 -8 7 -11 16 -8 12 4 12 2 -2 -8 -10 -8 -19 -24 -20 -37 -1 -12 -8 -22
-17 -22 -13 0 -13 -1 0 -10 10 -6 11 -10 3 -10 -7 0 -13 -6 -13 -14 0 -8 -7
-17 -16 -20 -8 -3 -12 -10 -9 -16 3 -5 1 -10 -5 -10 -6 0 -15 -11 -20 -25 -5
-14 -18 -28 -27 -32 -10 -4 -28 -17 -40 -30 -12 -13 -26 -23 -31 -23 -6 0 -12
-7 -16 -15 -3 -8 -9 -15 -13 -14 -20 3 -34 -2 -28 -11 4 -6 -8 -10 -29 -10
-26 0 -34 -4 -30 -14 4 -11 -3 -14 -28 -14 -63 1 -79 -2 -73 -12 7 -11 -43
-14 -214 -11 -58 0 -108 5 -111 11 -3 5 -36 11 -73 13 -37 2 -71 8 -75 12 -4
5 1 5 10 2 10 -3 20 -3 22 2 3 4 -16 8 -42 10 -26 1 -50 7 -53 13 -4 6 -12 7
-19 3 -9 -5 -11 -4 -6 3 7 11 -7 17 -29 12 -5 -1 -6 2 -2 7 5 4 12 8 15 9 31
4 92 36 86 46 -5 7 10 12 29 9 4 0 7 4 7 10 0 5 5 7 10 4 6 -3 10 1 10 9 0 10
6 13 15 10 9 -4 15 0 15 10 0 14 18 21 43 17 5 -1 6 3 3 8 -4 5 3 12 14 16 11
3 20 11 20 16 0 5 7 9 15 9 8 0 15 7 15 15 0 8 9 15 20 15 11 0 23 7 26 15 4
8 13 15 21 15 8 0 11 5 8 10 -3 6 1 10 9 10 9 0 16 7 16 15 0 8 6 15 14 15 8
0 16 3 18 8 2 4 16 17 32 30 16 12 26 22 22 22 -4 0 -4 5 0 11 4 8 9 7 15 -2
6 -10 9 -8 9 9 0 13 6 22 15 22 8 0 15 7 15 16 0 8 4 13 9 9 5 -3 12 4 16 15
3 11 14 20 22 20 9 0 14 3 10 6 -3 3 7 17 24 31 16 14 26 30 22 36 -4 6 0 8
10 4 12 -5 17 -1 17 13 0 11 7 20 15 20 8 0 15 7 15 16 0 8 4 13 9 10 5 -3 11
4 14 15 3 12 10 18 17 14 6 -3 10 -3 9 2 -1 4 -1 16 0 27 1 15 4 16 16 6 13
-11 14 -10 10 3 -4 9 3 24 16 36 13 12 19 21 15 21 -7 0 3 14 36 50 9 10 14
21 11 23 -2 3 5 10 16 16 12 7 18 17 15 26 -4 8 1 18 10 21 9 3 16 12 16 19 0
8 7 21 16 29 8 9 13 20 10 25 -4 5 0 11 6 14 7 2 15 0 16 -5 2 -4 8 -5 14 -2z
m-2715 -491 c0 -8 -4 -12 -9 -9 -5 3 -6 10 -3 15 9 13 12 11 12 -6z"/>
<path d="M730 3045 c0 -8 4 -15 10 -15 5 0 7 7 4 15 -4 8 -8 15 -10 15 -2 0
-4 -7 -4 -15z"/>
<path d="M1810 2790 c12 -7 10 -11 -10 -19 -14 -5 -21 -10 -16 -10 4 -1 1 -12
-8 -26 -9 -13 -16 -36 -16 -49 0 -17 -4 -24 -14 -20 -8 3 -13 -2 -13 -13 0
-34 -3 -44 -11 -39 -4 2 -9 -5 -10 -17 -4 -41 -8 -56 -17 -64 -4 -4 -5 -2 0 6
5 9 4 12 -2 8 -6 -4 -11 -17 -11 -29 -2 -35 -7 -57 -17 -65 -4 -4 -5 -2 0 6 5
9 4 12 -2 8 -6 -4 -10 -18 -10 -33 0 -14 -5 -29 -11 -33 -6 -3 -12 -18 -14
-33 -2 -15 -8 -31 -13 -35 -4 -5 -5 -2 0 6 5 8 4 12 -1 8 -5 -3 -11 -20 -12
-38 -1 -18 -10 -39 -20 -46 -11 -9 -12 -12 -2 -7 12 6 13 4 3 -7 -7 -7 -13
-24 -13 -37 0 -13 -4 -20 -10 -17 -9 5 -14 -16 -13 -52 1 -7 -5 -13 -13 -13
-9 0 -14 -12 -14 -35 0 -22 -6 -38 -15 -41 -8 -4 -15 -12 -15 -20 0 -8 -6 -14
-12 -14 -10 0 -10 -2 0 -9 11 -7 10 -10 -3 -15 -9 -3 -21 -3 -26 0 -5 3 -8 0
-7 -8 2 -7 -6 -13 -17 -13 -12 -1 -30 -10 -42 -22 -19 -19 -19 -22 -5 -28 24
-9 291 -4 297 5 3 5 0 12 -6 16 -8 5 -9 3 -4 -6 5 -8 4 -11 -3 -6 -6 4 -9 13
-5 21 5 15 -9 19 -56 15 -18 -1 -22 2 -18 15 4 9 3 13 -3 10 -15 -9 -8 48 7
60 7 6 14 31 15 57 2 25 7 46 12 45 4 -1 10 9 12 22 6 33 9 35 49 35 19 0 35
4 35 9 0 4 6 5 12 1 18 -12 148 -12 148 -1 0 5 8 3 17 -4 15 -12 16 -12 8 1
-8 13 -7 13 8 1 9 -7 17 -24 17 -38 0 -13 6 -26 13 -29 7 -2 14 -19 15 -36 2
-18 8 -35 14 -39 6 -4 12 -26 12 -48 0 -35 2 -38 16 -28 8 6 6 1 -4 -11 -11
-12 -27 -22 -35 -21 -29 3 -42 -1 -37 -10 3 -5 -2 -12 -11 -15 -11 -5 -13 -10
-6 -17 13 -13 673 -13 686 0 5 5 4 17 -3 28 -11 17 -11 17 -6 -2 6 -18 5 -19
-7 -3 -8 10 -29 19 -48 20 -57 4 -65 21 -66 134 0 59 4 105 11 113 8 11 8 13
-1 7 -7 -4 -13 -2 -13 3 0 6 12 11 26 11 17 0 23 -4 18 -12 -6 -10 -4 -10 7 0
7 6 24 12 37 12 16 0 21 -4 16 -12 -6 -10 -3 -9 8 0 9 8 25 13 35 12 46 -5 97
1 84 9 -10 7 -5 11 18 16 17 4 29 11 25 16 -3 5 2 9 10 9 9 0 16 7 16 15 0 8
6 14 13 12 6 -1 11 4 9 11 -1 7 4 20 13 28 8 9 15 24 15 35 0 29 2 33 19 47 9
8 10 11 4 7 -15 -7 -18 11 -3 20 6 3 10 13 10 21 0 8 -4 13 -9 9 -5 -3 -13 -1
-16 5 -4 6 -1 9 6 8 16 -3 20 110 5 119 -5 4 -6 0 -1 -7 5 -9 4 -11 -3 -6 -7
4 -12 18 -12 32 0 13 -5 24 -10 24 -6 0 -15 11 -20 25 -5 14 -17 25 -26 25
-10 0 -14 5 -10 15 3 8 2 14 -2 14 -22 -4 -42 2 -37 11 6 9 -7 12 -63 13 -12
1 -21 6 -19 12 3 6 -8 11 -24 11 -26 2 -28 0 -17 -15 10 -13 9 -13 -8 2 -26
21 -33 21 -56 0 -15 -13 -19 -14 -16 -3 2 7 -6 15 -17 17 -15 3 -16 2 -7 -5
11 -7 11 -10 -2 -15 -9 -4 -15 -1 -13 5 1 7 -7 13 -18 15 -15 3 -16 2 -7 -5
11 -7 11 -10 -2 -15 -9 -4 -15 -1 -13 5 2 13 -32 20 -53 11 -25 -10 -75 -12
-59 -2 12 7 12 9 0 9 -8 0 -24 -8 -35 -17 -16 -14 -18 -14 -8 -2 10 14 9 16
-8 15 -35 -2 -54 -46 -20 -46 11 0 20 -6 20 -12 0 -9 4 -8 10 2 8 12 10 12 10
-5 0 -17 2 -17 10 -5 6 10 10 11 10 3 0 -7 7 -13 15 -13 11 0 15 -13 16 -52 1
-29 2 -80 3 -113 0 -33 5 -66 10 -74 6 -9 5 -12 -1 -8 -13 8 -12 -292 1 -312
6 -9 5 -12 -1 -8 -5 3 -10 -23 -10 -68 -2 -116 0 -114 -98 -113 -46 1 -84 4
-83 7 1 17 -15 50 -23 45 -5 -3 -9 -2 -10 3 -2 26 -9 47 -16 52 -9 7 -14 25
-17 58 0 11 -4 19 -8 17 -4 -3 -10 12 -14 33 -4 21 -11 41 -15 44 -5 3 -10 17
-11 32 -1 15 -8 27 -15 27 -11 0 -17 33 -12 66 0 4 -5 10 -11 14 -7 4 -14 22
-16 39 -2 18 -10 39 -18 47 -8 8 -13 23 -11 34 2 11 -1 20 -6 20 -6 0 -8 4 -5
9 4 5 1 11 -4 13 -6 2 -12 14 -12 28 -1 14 -6 28 -11 31 -9 6 -15 30 -16 62
-1 10 -5 16 -10 12 -6 -3 -10 3 -10 12 -3 61 -5 72 -16 63 -12 -10 -13 -7 -17
38 -1 10 -11 19 -23 20 -15 1 -17 -1 -5 -8z m580 -10 c0 -5 -2 -10 -4 -10 -3
0 -8 5 -11 10 -3 6 -1 10 4 10 6 0 11 -4 11 -10z m140 -38 c0 -5 -7 -9 -15 -9
-8 0 -12 4 -9 9 3 4 9 8 15 8 5 0 9 -4 9 -8z m40 -4 c0 -4 -4 -8 -9 -8 -6 0
-12 4 -15 8 -3 5 1 9 9 9 8 0 15 -4 15 -9z m-1 -15 c45 -2 68 -7 74 -18 4 -8
15 -15 23 -15 8 0 17 -7 20 -15 4 -8 11 -12 18 -8 6 4 5 -1 -3 -10 -12 -15 -9
-21 12 -18 4 0 7 -17 7 -40 0 -29 3 -38 13 -33 10 6 10 4 0 -7 -8 -7 -13 -38
-13 -71 0 -32 -4 -58 -9 -58 -5 0 -12 -12 -15 -26 -8 -29 -29 -54 -45 -54 -6
0 -11 -7 -11 -15 0 -10 -11 -15 -30 -16 -42 -2 -47 -3 -56 -11 -3 -4 4 -5 16
-3 12 2 20 1 16 -2 -4 -4 -35 -8 -70 -8 l-63 -1 0 213 c0 203 1 213 19 213 12
0 16 4 12 12 -5 7 -3 8 7 3 7 -5 42 -10 78 -12z m-784 -153 c4 -12 11 -17 18
-13 7 4 5 -2 -3 -12 -9 -11 -10 -16 -2 -11 11 7 15 -8 15 -66 0 -10 4 -15 8
-12 5 3 6 10 3 16 -4 7 -2 8 4 4 7 -4 12 -22 12 -41 0 -43 9 -67 22 -59 7 5 9
-5 6 -25 -3 -21 0 -31 9 -31 17 0 17 -16 0 -23 -23 -9 -193 -6 -208 4 -10 6
-10 9 -1 9 7 0 12 13 12 29 0 16 6 31 15 35 10 3 15 19 15 43 0 28 3 34 10 23
7 -11 10 -7 11 20 1 19 1 39 0 43 -1 5 3 6 8 2 11 -6 26 37 23 68 -1 24 15 22
23 -3z"/>
<path d="M3615 2200 c3 -5 8 -10 11 -10 2 0 4 5 4 10 0 6 -5 10 -11 10 -5 0
-7 -4 -4 -10z"/>
<path d="M3665 1760 c-3 -5 -1 -10 4 -10 6 0 11 5 11 10 0 6 -2 10 -4 10 -3 0
-8 -4 -11 -10z"/>
<path d="M995 980 c3 -5 11 -10 16 -10 6 0 7 5 4 10 -3 6 -11 10 -16 10 -6 0
-7 -4 -4 -10z"/>
<path d="M2278 783 c7 -3 16 -2 19 1 4 3 -2 6 -13 5 -11 0 -14 -3 -6 -6z"/>
<path d="M2875 780 c-3 -6 1 -7 9 -4 18 7 21 14 7 14 -6 0 -13 -4 -16 -10z"/>
<path d="M663 457 c-10 -11 -12 -17 -6 -13 9 5 11 2 7 -8 -3 -9 -10 -13 -15
-10 -5 3 -9 1 -9 -5 0 -5 6 -12 13 -14 10 -4 10 -6 0 -6 -7 -1 -13 -7 -13 -15
0 -8 -5 -16 -11 -18 -7 -2 -13 -16 -13 -32 -1 -15 -7 -30 -13 -34 -6 -4 -13
-23 -14 -42 -4 -32 -35 -78 -51 -73 -5 2 -5 -34 1 -56 0 -3 8 4 16 15 12 15
14 16 15 3 0 -10 8 -15 23 -14 12 1 20 4 17 7 -3 3 1 12 8 21 9 10 10 17 2 22
-6 4 -10 22 -8 40 1 19 6 31 10 29 4 -3 8 0 8 5 0 15 27 14 33 -1 4 -10 6 -10
6 0 1 6 8 12 16 12 8 0 15 -6 15 -12 0 -10 3 -10 9 0 6 10 10 6 15 -14 4 -16
13 -32 19 -37 9 -5 7 -11 -6 -21 -13 -10 -17 -21 -12 -36 5 -16 10 -18 20 -10
8 7 15 7 19 1 4 -5 19 -8 34 -7 21 2 28 9 30 30 2 14 -2 26 -8 26 -6 0 -8 -5
-4 -12 4 -7 3 -8 -4 -4 -7 4 -12 18 -12 31 0 13 -5 27 -12 31 -7 5 -8 2 -3 -7
5 -8 4 -11 -1 -6 -10 10 -11 14 -13 58 0 17 -5 28 -11 24 -6 -3 -11 5 -11 19
-2 45 -5 51 -17 48 -10 -2 -18 40 -13 71 0 4 -6 7 -15 7 -13 0 -14 3 -5 13 18
23 -16 16 -36 -6z m33 -142 c-1 -15 -8 -20 -26 -20 -20 0 -26 6 -28 28 -2 17
-8 25 -14 21 -7 -4 -8 -2 -4 4 4 6 13 9 21 6 8 -4 12 -10 9 -15 -9 -15 3 -10
17 8 8 10 9 14 2 10 -6 -4 -14 -3 -18 3 -3 5 1 10 9 10 9 0 17 6 17 13 2 18
15 -45 15 -68z m89 -165 c3 -5 1 -10 -4 -10 -6 0 -11 5 -11 10 0 6 2 10 4 10
3 0 8 -4 11 -10z"/>
<path d="M960 471 c0 -6 7 -14 15 -17 8 -4 15 -16 15 -28 0 -17 2 -18 10 -6 5
8 10 10 10 5 0 -6 -6 -17 -12 -24 -10 -11 -10 -13 0 -7 6 4 12 3 12 -3 0 -5
-6 -12 -12 -14 -10 -4 -9 -6 1 -6 11 -1 11 -4 0 -18 -10 -11 -10 -14 -1 -9 6
4 12 3 12 -3 0 -5 -6 -12 -12 -14 -9 -4 -8 -6 2 -6 13 -1 13 -2 0 -11 -10 -6
-11 -10 -2 -10 6 0 12 -8 12 -17 0 -15 -2 -16 -10 -3 -7 12 -9 10 -7 -7 0 -12
5 -19 9 -17 4 3 8 -2 8 -11 0 -9 -4 -14 -8 -11 -4 2 -9 -5 -9 -17 -2 -17 0
-19 7 -7 6 9 10 10 10 3 0 -7 -6 -16 -14 -20 -9 -5 -12 -18 -9 -34 4 -24 9
-26 45 -24 22 1 47 10 56 20 11 12 12 15 3 10 -11 -6 -13 -4 -8 9 4 10 3 15
-3 11 -6 -3 -10 2 -11 12 0 16 -1 16 -8 -2 -7 -17 -8 -17 -13 7 -3 15 -1 25 3
22 9 -5 12 9 12 49 0 18 3 19 37 19 42 0 50 -2 50 -17 0 -8 5 -15 10 -15 6 0
10 26 10 58 -1 52 -2 55 -15 38 -8 -10 -12 -22 -10 -26 3 -4 -18 -7 -45 -7
-31 0 -47 3 -43 10 9 15 11 77 1 71 -4 -3 -8 -1 -8 5 0 5 5 13 10 16 6 4 8 11
5 16 -4 5 -3 9 2 10 51 4 80 2 80 -6 0 -5 1 -19 2 -30 1 -19 3 -18 22 5 17 21
19 22 10 3 -15 -29 -14 -38 2 -24 15 12 16 55 3 68 -5 4 -6 2 -2 -4 4 -7 2
-13 -3 -13 -6 0 -11 7 -11 15 0 12 -17 14 -94 13 -64 -1 -93 -5 -89 -12 4 -6
-1 -5 -10 3 -12 9 -17 10 -17 2z m93 -184 c3 -8 2 -20 -3 -26 -5 -9 -7 -4 -7
13 0 29 2 32 10 13z m-28 -137 c3 -5 1 -10 -4 -10 -6 0 -11 5 -11 10 0 6 2 10
4 10 3 0 8 -4 11 -10z m45 4 c0 -8 -19 -13 -24 -6 -3 5 1 9 9 9 8 0 15 -2 15
-3z"/>
<path d="M1326 464 c-3 -8 1 -14 8 -14 8 0 17 -11 20 -24 8 -34 6 -247 -3
-242 -11 7 -34 -11 -37 -28 -1 -9 2 -14 6 -11 5 3 11 1 15 -5 4 -6 12 -5 21 5
9 8 20 15 27 15 6 0 3 -6 -7 -13 -17 -12 -15 -13 15 -11 19 1 41 3 49 3 13 1
13 3 1 10 -8 5 -21 7 -30 4 -14 -4 -14 -3 -1 5 8 6 18 8 23 5 5 -3 7 0 5 8 -3
8 -11 13 -17 11 -8 -2 -11 15 -9 55 l3 57 38 2 c24 1 37 -3 37 -11 0 -7 7 -15
15 -19 12 -4 15 4 15 38 0 30 -5 46 -15 50 -10 3 -15 -1 -15 -12 0 -13 -10
-18 -38 -19 l-39 -2 -2 51 c-2 65 5 87 27 83 9 -2 21 -4 25 -4 5 -1 5 -7 1
-13 -6 -10 -4 -10 7 0 18 17 30 15 23 -3 -7 -18 7 -20 23 -4 9 9 10 6 6 -11
-4 -16 -2 -21 7 -18 20 6 21 40 2 55 -15 12 -15 13 3 7 15 -4 17 -3 5 4 -25
16 -208 12 -214 -4z m14 -304 c0 -5 -2 -10 -4 -10 -3 0 -8 5 -11 10 -3 6 -1
10 4 10 6 0 11 -4 11 -10z"/>
<path d="M1666 468 c3 -5 13 -7 21 -3 13 4 14 3 3 -10 -11 -13 -10 -15 1 -10
12 5 15 -16 16 -122 0 -71 -3 -135 -8 -143 -5 -10 -8 -11 -9 -2 0 6 -4 12 -8
12 -12 0 -9 -43 2 -52 16 -11 67 0 89 19 20 17 21 17 8 0 -8 -9 -11 -20 -8
-24 4 -3 9 2 13 11 3 9 10 13 16 10 5 -3 4 3 -3 14 -7 11 -19 18 -26 15 -10
-4 -13 20 -13 120 0 107 2 126 16 131 9 4 14 9 11 13 -4 3 1 11 10 18 13 10 2
12 -60 12 -45 0 -74 -4 -71 -9z m109 -18 c3 -5 1 -10 -4 -10 -6 0 -11 5 -11
10 0 6 2 10 4 10 3 0 8 -4 11 -10z m-70 -300 c3 -5 1 -10 -4 -10 -6 0 -11 5
-11 10 0 6 2 10 4 10 3 0 8 -4 11 -10z m45 4 c0 -8 -19 -13 -24 -6 -3 5 1 9 9
9 8 0 15 -2 15 -3z"/>
<path d="M1920 472 c0 -12 38 -41 44 -35 6 7 7 -11 10 -159 1 -81 -2 -93 -26
-90 -3 1 -12 -5 -18 -14 -11 -12 -10 -13 4 -8 9 4 16 3 15 -2 -4 -21 2 -28 11
-14 8 13 10 13 10 -2 0 -13 7 -16 37 -12 40 5 58 14 28 14 -18 0 -18 1 1 15
18 14 17 16 -16 19 -23 2 -28 186 -5 186 8 0 14 -3 13 -7 -2 -5 1 -8 6 -8 5 0
13 -10 17 -23 5 -14 13 -20 20 -16 7 4 9 3 5 -4 -3 -6 -2 -13 4 -17 6 -4 8
-11 4 -16 -3 -5 0 -8 7 -7 7 2 13 -2 14 -8 0 -6 12 -22 28 -36 15 -14 27 -30
27 -37 0 -6 3 -10 8 -10 17 3 26 -2 16 -9 -9 -5 -8 -11 2 -20 8 -7 14 -8 14
-2 0 5 5 10 11 10 5 0 8 -4 4 -9 -3 -5 -1 -12 4 -16 6 -3 8 6 5 21 -3 16 -1
23 6 19 6 -3 7 0 4 9 -3 9 -10 13 -15 10 -5 -3 -6 2 -3 10 3 9 9 14 13 12 9
-6 6 53 -4 62 -5 4 -5 2 -1 -5 8 -14 -10 -28 -18 -14 -4 5 -2 12 4 16 6 3 8
17 6 30 -3 14 -1 27 4 30 5 3 7 -3 5 -15 -2 -11 -1 -22 3 -24 4 -2 7 24 7 59
0 35 -4 61 -8 58 -5 -3 -6 -12 -2 -22 5 -12 3 -13 -5 -4 -9 8 -7 18 11 42 12
16 25 28 29 26 4 -2 7 2 7 9 0 10 -17 14 -62 14 -45 0 -62 -4 -62 -14 0 -7 3
-13 6 -12 38 4 40 0 39 -102 -1 -55 -5 -100 -9 -100 -5 0 -9 4 -9 9 0 5 -13
23 -30 39 -16 17 -30 35 -30 41 0 6 -7 11 -16 11 -14 0 -14 3 -4 16 11 12 11
15 -1 12 -8 -2 -13 3 -11 11 2 8 -3 11 -13 8 -10 -5 -15 0 -15 13 0 11 -7 20
-16 20 -8 0 -12 5 -9 10 3 6 0 10 -8 10 -8 0 -17 6 -20 13 -5 14 -77 22 -77 9z
m305 -112 c-3 -5 -12 -10 -18 -10 -7 0 -6 4 3 10 19 12 23 12 15 0z m-220
-218 c-3 -3 -11 0 -18 7 -9 10 -8 11 6 5 10 -3 15 -9 12 -12z"/>
<path d="M2379 463 c-11 -15 -11 -16 1 -5 17 14 34 16 25 2 -3 -5 0 -10 8 -10
11 0 13 -26 13 -134 -1 -74 -4 -138 -8 -142 -5 -4 -8 -2 -8 4 0 7 -4 12 -8 12
-14 0 -8 -44 7 -54 9 -6 17 -3 24 10 10 17 11 17 16 0 6 -16 9 -15 36 6 19 14
25 16 16 5 -8 -10 -11 -20 -8 -24 4 -3 9 2 13 11 3 9 11 13 18 9 6 -3 2 3 -8
15 -21 24 -32 29 -20 10 4 -7 3 -8 -4 -4 -8 5 -12 51 -12 144 0 92 3 132 10
122 9 -13 10 -13 11 0 1 8 1 19 0 24 -1 5 5 6 14 2 9 -3 13 -2 10 4 -3 6 -35
10 -69 10 -49 0 -67 -4 -77 -17z"/>
<path d="M2646 464 c-3 -7 0 -11 7 -9 30 11 37 -12 38 -126 1 -148 1 -151 -11
-144 -5 3 -10 1 -10 -5 0 -6 -4 -9 -8 -6 -5 3 -8 -4 -7 -16 1 -12 9 -22 19
-24 10 -1 16 3 13 10 -3 6 3 12 14 12 12 0 15 -4 9 -12 -17 -19 50 -9 68 11
15 17 15 18 0 6 -14 -11 -16 -9 -11 10 4 15 3 20 -5 15 -12 -7 -14 1 -15 54
-1 19 4 25 21 26 12 1 34 2 50 3 21 1 24 3 12 11 -12 8 -10 10 8 10 18 0 22 4
17 19 -3 11 0 23 6 27 8 4 9 3 5 -4 -4 -7 -3 -12 3 -12 6 0 10 23 9 54 -1 30
-6 52 -11 49 -4 -3 -11 4 -14 15 -3 14 -10 19 -21 15 -10 -4 -13 -2 -8 5 9 14
12 14 -91 17 -61 2 -83 -1 -87 -11z m153 -20 c-6 -8 -3 -13 11 -17 18 -5 21
-12 19 -56 -2 -34 -7 -51 -16 -51 -7 0 -13 -6 -13 -13 0 -16 -47 -20 -52 -4
-3 11 -3 87 0 132 2 15 9 20 31 20 21 0 27 -3 20 -11z m-54 -294 c3 -5 1 -10
-4 -10 -6 0 -11 5 -11 10 0 6 2 10 4 10 3 0 8 -4 11 -10z"/>
<path d="M3109 451 c-15 -31 -16 -35 -18 -62 0 -11 -5 -17 -11 -14 -5 3 -10
-2 -11 -12 -2 -41 -6 -63 -14 -70 -4 -5 -5 0 -2 10 4 11 3 16 -4 11 -13 -8 -7
-100 6 -96 10 2 11 5 14 35 1 10 17 14 51 14 50 0 58 -8 51 -49 0 -5 6 -8 14
-8 8 0 15 -5 15 -11 0 -5 -4 -8 -9 -5 -4 3 -13 -6 -20 -21 -11 -23 -10 -25 9
-20 16 4 19 2 11 -7 -8 -9 0 -11 32 -10 23 1 45 2 50 3 4 1 7 12 7 26 0 18 -4
23 -15 19 -10 -4 -15 0 -15 16 0 11 -4 18 -10 15 -9 -6 -13 11 -13 58 0 9 -6
17 -13 17 -8 0 -14 10 -14 23 0 13 -6 29 -12 36 -11 11 -10 13 2 7 8 -4 7 -1
-3 7 -10 9 -18 18 -18 21 1 3 1 21 1 39 0 24 -3 28 -10 17 -8 -13 -10 -12 -11
5 -1 11 -1 23 -1 26 2 17 -28 2 -39 -20z m36 -121 c0 -31 -3 -35 -27 -37 -23
-1 -28 2 -28 22 0 39 11 56 34 53 16 -2 21 -10 21 -38z m80 -180 c3 -5 1 -10
-4 -10 -6 0 -11 5 -11 10 0 6 2 10 4 10 3 0 8 -4 11 -10z m45 4 c0 -8 -19 -13
-24 -6 -3 5 1 9 9 9 8 0 15 -2 15 -3z"/>
<path d="M3110 350 c0 -5 5 -10 10 -10 6 0 10 5 10 10 0 6 -4 10 -10 10 -5 0
-10 -4 -10 -10z"/>
<path d="M3365 472 c-10 -10 -5 -22 8 -19 6 1 11 -4 10 -10 -2 -7 4 -13 12
-13 13 0 20 -19 16 -44 -1 -5 5 -6 13 -3 9 4 15 3 14 -1 -3 -16 15 -61 23 -56
5 3 9 -12 9 -33 0 -25 3 -33 9 -24 6 9 9 5 9 -14 0 -19 -3 -23 -9 -14 -5 8 -9
9 -9 3 0 -6 3 -14 7 -18 11 -10 12 -37 2 -30 -5 3 -9 0 -9 -6 0 -6 -4 -8 -10
-5 -5 3 -10 3 -11 -2 0 -4 -2 -16 -4 -25 -2 -10 0 -20 5 -23 11 -7 41 5 35 14
-2 4 2 8 9 8 8 0 12 -6 9 -12 -3 -9 5 -11 24 -8 15 2 33 5 39 5 7 1 11 8 9 17
-1 9 -8 15 -14 14 -6 -2 -11 3 -11 11 0 8 -5 18 -12 22 -7 4 -8 3 -4 -4 4 -7
3 -12 -2 -12 -5 0 -8 22 -8 50 1 34 5 50 14 50 9 0 11 7 7 20 -4 13 -1 22 9
26 9 3 16 15 16 25 0 10 5 18 12 16 12 -2 14 4 17 39 0 8 5 13 10 9 6 -3 15 4
21 15 6 11 15 18 19 15 5 -3 11 1 14 8 3 9 -12 13 -54 15 -49 2 -59 0 -59 -13
0 -9 4 -14 9 -10 18 10 16 -40 -1 -57 -11 -11 -15 -24 -11 -35 6 -16 5 -16
-10 -4 -15 12 -17 12 -12 -2 4 -8 2 -18 -3 -21 -12 -7 -34 18 -30 35 2 8 -3
13 -9 11 -7 -1 -12 1 -12 5 4 26 -2 43 -13 37 -10 -6 -10 -4 0 7 6 7 12 21 12
31 0 16 -8 18 -50 17 -27 -1 -52 -4 -55 -7z"/>
<path d="M1516 373 c-6 -14 -5 -15 5 -6 7 7 10 15 7 18 -3 3 -9 -2 -12 -12z"/>
<path d="M1106 342 c-3 -5 1 -9 9 -9 8 0 15 4 15 9 0 4 -4 8 -9 8 -6 0 -12 -4
-15 -8z"/>
<path d="M3015 222 c-3 -18 -14 -32 -26 -35 -13 -4 -17 -10 -12 -23 5 -13 3
-15 -8 -9 -12 8 -12 6 0 -8 13 -16 16 -16 37 -2 19 12 22 13 18 1 -4 -10 0
-13 13 -11 10 2 21 4 26 4 4 1 7 13 7 27 0 14 -4 23 -10 19 -10 -6 -19 9 -24
39 -4 29 -14 28 -21 -2z m40 -62 c3 -5 1 -10 -4 -10 -6 0 -11 5 -11 10 0 6 2
10 4 10 3 0 8 -4 11 -10z"/>
<path d="M964 160 c0 -13 4 -16 10 -10 7 7 7 13 0 20 -6 6 -10 3 -10 -10z"/>
</g>
</svg>
