<svg xmlns="http://www.w3.org/2000/svg" viewBox="0 0 253.64 64.5"><title>associations-logo-white</title><path d="M6.54,9.1c3.5-3.4,9.3-3.8,15.8-1.6a41.56,41.56,0,0,1,7.2,3.3,58.79,58.79,0,0,1,12.3,9.6A58.73,58.73,0,0,1,51,32.5a42.37,42.37,0,0,0,3.3-7.3A44.59,44.59,0,0,0,47,15.4a45.12,45.12,0,0,0-10.1-7.7,44.67,44.67,0,0,0-7.2-3.1c-8.8-2.7-17.5-1.5-23.2,4C1,14-.36,22.3,1.84,30.9a42.37,42.37,0,0,1,2.8-6.2C2.64,18.3,3.14,12.5,6.54,9.1Z" style="fill:#fff"/><path d="M57,31.4A40,40,0,0,1,54,39c2.5,7,2.2,13.3-1.4,16.9s-9.9,3.8-16.8,1.2a42.38,42.38,0,0,1-6.5-3.1,56.9,56.9,0,0,1-12-9.4,58.46,58.46,0,0,1-9.4-12.5,42.38,42.38,0,0,0-3.1,6.5,43,43,0,0,0,7.8,10.7A40.9,40.9,0,0,0,22.84,57a36.43,36.43,0,0,0,6.5,2.8c9,2.9,18,1.8,23.8-3.9S60.14,40.8,57,31.4Z" style="fill:#fff"/><path d="M5.94,55.5c-3.6-3.7-3.8-10-1.2-16.9a42.38,42.38,0,0,1,3.1-6.5,59.41,59.41,0,0,1,21.7-21.3,45.26,45.26,0,0,0-7.2-3.3A44.59,44.59,0,0,0,12.14,15a45.14,45.14,0,0,0-7.5,9.7,31.14,31.14,0,0,0-2.8,6.2c-3.3,9.3-2.2,18.7,3.6,24.6s14.7,7,23.8,4.2a33.57,33.57,0,0,1-6.5-2.8C15.74,59.5,9.54,59.2,5.94,55.5Z" style="fill:#fff"/><path d="M52.74,9c-5.6-5.6-14.2-7-23.1-4.4a30.13,30.13,0,0,1,7.2,3.1c6.6-2.1,12.4-1.6,15.8,1.8s3.8,9.2,1.6,15.7a46.08,46.08,0,0,1-3.3,7.3,59.25,59.25,0,0,1-9.6,12.4,58.73,58.73,0,0,1-12.1,9.2,42.38,42.38,0,0,0,6.5,3.1A42.76,42.76,0,0,0,46,49.6,43,43,0,0,0,53.94,39a37.52,37.52,0,0,0,3-7.6C59.44,22.9,58.14,14.5,52.74,9Z" style="fill:#fff"/><path d="M25.84,39.6v-.7c1.5-.2,1.8-.4,1.5-1.3s-.8-2.3-1.3-3.8h-5.2a24.48,24.48,0,0,0-1.2,3.1c-.5,1.5-.3,1.8,1.5,2v.7h-5.3v-.7c1.5-.2,1.9-.4,2.7-2.5l5.1-12.9.8-.2c1.5,4.2,3.2,8.9,4.7,13.1.8,2.1,1.1,2.3,2.7,2.5v.7Zm-2.4-13.1h0c-.8,2.1-1.6,4.2-2.4,6.2h4.5Z" style="fill:#fff"/><path d="M38.14,23.3a4.61,4.61,0,0,1,5,4.6c0,3.2-1.2,5.3-3.6,5.7-.4,0-1.3.1-1.5.1h-1.8l-.1,2.8c0,2.1.2,2.3,2.5,2.4v.7h-6.8v-.7c2-.2,2.2-.4,2.2-2.4v-10c0-2.2-.2-2.3-2.1-2.4v-.7C31.94,23.3,38.14,23.3,38.14,23.3Zm-2,9.3a11.75,11.75,0,0,0,1.9,0c1.6,0,3.6-1.4,3.6-4.5a3.54,3.54,0,0,0-3.8-3.9,2.21,2.21,0,0,0-1.4.3c-.2.2-.3.5-.3,1.2Z" style="fill:#fff"/><rect x="71.44" width="1.2" height="64.5" style="fill:#fff"/><path d="M94.84,32.8V32c1.8-.2,2.1-.5,1.7-1.6s-1-2.7-1.6-4.5h-6.2c-.5,1.3-.9,2.5-1.3,3.8-.6,1.8-.4,2.1,1.8,2.3v.8h-6.4V32c1.8-.3,2.3-.4,3.3-3l6.1-15.4.9-.3c1.8,5,3.8,10.6,5.7,15.7.9,2.5,1.3,2.8,3.2,3v.8Zm-2.9-15.7h0c-1,2.5-1.9,5.1-2.8,7.5h5.4Z" style="fill:#fff"/><path d="M118.94,18.2a5.07,5.07,0,0,0-.8-2.3c-.5-.8-1.1-1.1-3.3-1.1h-2.2c-.9,0-.9.1-.9.9v7h3c2.7,0,2.8-.3,3.2-2.1h.8v5.6h-.8c-.4-2-.5-2.3-3.2-2.3h-3v5.3c0,2.5.2,2.7,2.9,2.9v.8h-8v-.8c2.3-.2,2.6-.3,2.6-2.9V17.4c0-2.5-.2-2.7-2.5-2.9v-.8h12.9a34.6,34.6,0,0,0,.3,4.3Z" style="fill:#fff"/><path d="M137.34,18.2a5.07,5.07,0,0,0-.8-2.3c-.5-.8-1.1-1.1-3.3-1.1H131c-.9,0-.9.1-.9.9v7h3c2.7,0,2.8-.3,3.2-2.1h.8v5.6h-.8c-.4-2-.5-2.3-3.2-2.3h-3v5.3c0,2.5.2,2.7,2.9,2.9v.8h-8v-.8c2.3-.2,2.6-.3,2.6-2.9V17.4c0-2.5-.2-2.7-2.5-2.9v-.8H138a34.6,34.6,0,0,0,.3,4.3Z" style="fill:#fff"/><path d="M143.24,32.8V32c2.4-.2,2.6-.4,2.6-2.8V17.4c0-2.5-.2-2.7-2.6-2.8v-.8H151v.8c-2.4.2-2.6.4-2.6,2.8V29.1c0,2.5.2,2.7,2.6,2.8v.8h-7.8Z" style="fill:#fff"/><path d="M176,14.5c-1.6.1-2.3.5-2.5,1.8a42.81,42.81,0,0,0-.2,4.9V33h-.9l-12.5-15.4h-.1V25a45.09,45.09,0,0,0,.2,5c.1,1.5.8,1.8,2.8,2v.8h-6.9V32c1.7-.1,2.4-.5,2.6-1.9a45.09,45.09,0,0,0,.2-5V18.6c0-2.1-.1-2.3-.6-3a3.19,3.19,0,0,0-2.6-1.1v-.8h4.3L172,28.4h.1V21.2a42.81,42.81,0,0,0-.2-4.9c-.1-1.3-.8-1.7-2.9-1.8v-.8h6.9v.8Z" style="fill:#fff"/><path d="M180.64,32.8V32c2.4-.2,2.6-.4,2.6-2.8V17.4c0-2.5-.2-2.7-2.6-2.8v-.8h7.8v.8c-2.4.2-2.6.4-2.6,2.8V29.1c0,2.5.2,2.7,2.6,2.8v.8h-7.8Z" style="fill:#fff"/><path d="M221.64,32.8V32c1.8-.2,2.1-.5,1.7-1.6s-1-2.7-1.6-4.5h-6.2c-.5,1.3-.9,2.5-1.3,3.8-.6,1.8-.4,2.1,1.8,2.3v.8h-6.4V32c1.8-.3,2.3-.4,3.3-3L219,13.6l.9-.3c1.8,5,3.8,10.6,5.7,15.7.9,2.5,1.3,2.8,3.2,3v.8Zm-2.8-15.7h0c-1,2.5-1.9,5.1-2.8,7.5h5.4Z" style="fill:#fff"/><path d="M248.14,14.5c-2,.2-2.3.5-3.5,2.3-1.3,2.1-2.3,3.8-3.7,6.4a3.29,3.29,0,0,0-.5,1.8v4c0,2.5.2,2.7,2.9,2.8v.8H235v-.8c2.6-.2,2.9-.3,2.9-2.8V25.1a2.89,2.89,0,0,0-.6-1.7c-1-1.8-2.1-3.7-3.7-6.5-1.2-2-1.5-2.3-3.3-2.5v-.8h7v.8c-2.1.3-2,.6-1.5,1.6,1.2,2.3,2.7,4.8,3.9,7,1.1-1.9,2.7-4.8,3.5-6.6.7-1.5.6-1.7-1.7-1.9v-.8H248v.8Z" style="fill:#fff"/><path d="M201.54,13.8a5.09,5.09,0,0,1,3.9,1.2,4.9,4.9,0,0,1,1.9,4.1c0,3.8-1.4,6.2-4.3,6.6-.4,0-1.5.1-1.8.1h-2.7l-.1,3.4c0,2.5.3,2.6,2.9,2.8v.8h-7.9V32c2.3-.2,2.6-.4,2.6-2.8V17.4c0-2.6-.2-2.7-2.4-2.8v-.8Zm-2.9,10.7h2.5c1.9,0,4.2-1.6,4.2-5.3,0-3.2-2-4.5-4.4-4.5a4.09,4.09,0,0,0-1.9.3c-.2.2-.3.6-.3,1.4v8.1Z" style="fill:#fff"/><path d="M251.74,13.7a2.92,2.92,0,0,1,.9.2,2.34,2.34,0,0,1,.7.7,1.69,1.69,0,0,1,.3,1,1.61,1.61,0,0,1-.3.9,2.34,2.34,0,0,1-.7.7,1.5,1.5,0,0,1-1.8,0,2.34,2.34,0,0,1-.7-.7,1.61,1.61,0,0,1-.3-.9,1.93,1.93,0,0,1,.3-1,2.34,2.34,0,0,1,.7-.7,2.39,2.39,0,0,1,.9-.2m0,.3a2.35,2.35,0,0,0-.8.2c-.3.1-.4.3-.6.6a2.35,2.35,0,0,0-.2.8,2.35,2.35,0,0,0,.2.8c.1.3.3.4.6.6a1.7,1.7,0,0,0,1.6,0c.3-.1.4-.3.6-.6a2.35,2.35,0,0,0,.2-.8,2.35,2.35,0,0,0-.2-.8c-.1-.3-.3-.4-.6-.6a3.09,3.09,0,0,0-.8-.2m-.8,2.6v-2h.7a.75.75,0,0,1,.5.1.22.22,0,0,1,.2.2.37.37,0,0,1,.1.3.76.76,0,0,1-.2.4.52.52,0,0,1-.4.2c.1,0,.1.1.2.1a1.38,1.38,0,0,1,.3.4l.2.4h-.4l-.2-.3a2.19,2.19,0,0,0-.3-.5c-.1,0-.1-.1-.3-.1h-.2v.8Zm.4-1.1h.4c.2,0,.3,0,.4-.1s.1-.1.1-.2V15l-.1-.1h-.7v.6Z" style="fill:#fff"/><path d="M123.24,56.1h-2.3V54.6a4.9,4.9,0,0,1-3.7,1.7c-2.2,0-4-1.3-4-3.6s1.9-3.4,4.6-3.6l3.1-.1v-.5c0-1.8-1.2-2.6-2.9-2.6a7.67,7.67,0,0,0-3.5,1l-.7-1.6a8.92,8.92,0,0,1,4.4-1.2,4.79,4.79,0,0,1,3.8,1.3c.8.8,1.2,1.8,1.2,3.8v6.9Zm-2.4-5.6-2.7.2c-1.9.1-2.6.9-2.6,2a2.13,2.13,0,0,0,2.4,2,3.76,3.76,0,0,0,3-1.7V50.5Z" style="fill:#fff"/><path d="M133.74,55.4a4.72,4.72,0,0,1-3.2,1,5.29,5.29,0,0,1-4.5-2.1l1.1-1.4a4.85,4.85,0,0,0,3.4,1.7c1.1,0,2.2-.4,2.2-1.7s-1.8-1.7-2.6-1.9a9.12,9.12,0,0,1-1.6-.6,3,3,0,0,1-1.8-2.8c0-2.2,1.9-3.3,3.9-3.3a5.15,5.15,0,0,1,4,1.5l-1,1.4a4.25,4.25,0,0,0-2.9-1.2c-1.1,0-1.9.5-1.9,1.4s1.1,1.4,2.3,1.7c.6.2,1.1.4,1.6.6a4.11,4.11,0,0,1,1.3.8,3,3,0,0,1,.9,2.2A3.42,3.42,0,0,1,133.74,55.4Z" style="fill:#fff"/><path d="M144.54,55.4a4.72,4.72,0,0,1-3.2,1,5.29,5.29,0,0,1-4.5-2.1l1.1-1.4a4.85,4.85,0,0,0,3.4,1.7c1.1,0,2.2-.4,2.2-1.7s-1.8-1.7-2.6-1.9a9.12,9.12,0,0,1-1.6-.6,3,3,0,0,1-1.8-2.8c0-2.2,1.9-3.3,3.9-3.3a5.15,5.15,0,0,1,4,1.5l-1,1.4a4.25,4.25,0,0,0-2.9-1.2c-1.1,0-1.9.5-1.9,1.4s1.1,1.4,2.3,1.7c.6.2,1.1.4,1.6.6a4.11,4.11,0,0,1,1.3.8,3,3,0,0,1,.9,2.2A3.42,3.42,0,0,1,144.54,55.4Z" style="fill:#fff"/><path d="M154.44,56.4a5.88,5.88,0,0,1-6.2-6,6,6,0,0,1,6.2-6.1,6.05,6.05,0,1,1,0,12.1Zm0-10.2c-2.4,0-3.8,1.8-3.8,4.1s1.4,4.1,3.8,4.1a3.81,3.81,0,0,0,3.8-4.1C158.14,48,156.74,46.2,154.44,46.2Z" style="fill:#fff"/><path d="M173.64,54.6c-.3.3-1.5,1.8-4.7,1.8a6.05,6.05,0,0,1,.1-12.1c3.1,0,4.4,1.5,4.5,1.7l-.8,1.7a4.56,4.56,0,0,0-3.5-1.4,3.79,3.79,0,0,0-3.8,4c0,2.4,1.5,4.1,3.8,4.1a4.65,4.65,0,0,0,3.5-1.5Z" style="fill:#fff"/><path d="M177.74,42.1a1.4,1.4,0,1,1,1.5-1.4A1.39,1.39,0,0,1,177.74,42.1Zm1.2,14h-2.4V44.5h2.4Z" style="fill:#fff"/><path d="M192.24,56.1h-2.3V54.6a4.9,4.9,0,0,1-3.7,1.7c-2.2,0-4-1.3-4-3.6s1.9-3.4,4.6-3.6l3.1-.1v-.5c0-1.8-1.2-2.6-2.9-2.6a7.67,7.67,0,0,0-3.5,1l-.7-1.6a8.92,8.92,0,0,1,4.4-1.2,4.79,4.79,0,0,1,3.8,1.3c.8.8,1.2,1.8,1.2,3.8v6.9Zm-2.3-5.6-2.7.2c-1.9.1-2.6.9-2.6,2a2.13,2.13,0,0,0,2.4,2,3.76,3.76,0,0,0,3-1.7V50.5Z" style="fill:#fff"/><path d="M201.84,56a5.68,5.68,0,0,1-2.1.4,2.9,2.9,0,0,1-2.5-1.2c-.5-.7-.6-1.6-.6-3.5V46.4h-1.7V44.5h1.7V41H199v3.5h2.8v1.9H199v5.3a4,4,0,0,0,.3,2.1c.2.4.5.6,1.2.6a2.54,2.54,0,0,0,1.2-.3Z" style="fill:#fff"/><path d="M205.94,42.1a1.4,1.4,0,1,1,1.5-1.4A1.39,1.39,0,0,1,205.94,42.1Zm1.2,14h-2.4V44.5h2.4Z" style="fill:#fff"/><path d="M216.84,56.4a5.88,5.88,0,0,1-6.2-6,6,6,0,0,1,6.2-6.1,6.05,6.05,0,1,1,0,12.1Zm0-10.2c-2.4,0-3.8,1.8-3.8,4.1s1.4,4.1,3.8,4.1a3.81,3.81,0,0,0,3.8-4.1C220.54,48,219.14,46.2,216.84,46.2Z" style="fill:#fff"/><path d="M236.44,56.1H234V49.6c0-2-.3-3.4-2.4-3.4s-3,1.8-3,4.1v5.9h-2.4V44.5h2.4v1.8h.1a3.93,3.93,0,0,1,3.6-2.1c3.3,0,4.2,2.2,4.2,5v6.9Z" style="fill:#fff"/><path d="M247.14,55.4a4.72,4.72,0,0,1-3.2,1,5.29,5.29,0,0,1-4.5-2.1l1.1-1.4a4.85,4.85,0,0,0,3.4,1.7c1.1,0,2.2-.4,2.2-1.7s-1.8-1.7-2.6-1.9a9.12,9.12,0,0,1-1.6-.6,3,3,0,0,1-1.8-2.8c0-2.2,1.9-3.3,3.9-3.3a5.15,5.15,0,0,1,4,1.5l-1,1.4a4.25,4.25,0,0,0-2.9-1.2c-1.1,0-1.9.5-1.9,1.4s1.1,1.4,2.3,1.7c.6.2,1.1.4,1.6.6a4.11,4.11,0,0,1,1.3.8,3,3,0,0,1,.9,2.2A3.78,3.78,0,0,1,247.14,55.4Z" style="fill:#fff"/><path d="M88.84,44a3.3,3.3,0,0,0-1.1-.2c-1.2,0-1.4.9-1.4,2v1h2.2v1.5h-2.2v7.8h-1.9V48.3h-1.3V46.8h1.3v-.9a4,4,0,0,1,.6-2.5,2.87,2.87,0,0,1,2.2-1,5.53,5.53,0,0,1,1.6.2Z" style="fill:#fff"/><path d="M93.74,56.3a4.65,4.65,0,0,1-4.9-4.8,4.78,4.78,0,0,1,4.9-4.9,4.73,4.73,0,0,1,4.9,4.9A4.65,4.65,0,0,1,93.74,56.3Zm0-8.1c-1.9,0-3,1.4-3,3.3a3.08,3.08,0,0,0,3,3.3c1.9,0,3-1.4,3-3.3S95.64,48.2,93.74,48.2Z" style="fill:#fff"/><path d="M105.74,48.5h0a3.09,3.09,0,0,0-1.1-.2,1.82,1.82,0,0,0-1.5.8,4,4,0,0,0-.6,2.3V56h-1.9V46.7h1.9v1.4h.1a2.33,2.33,0,0,1,2.3-1.6,2.43,2.43,0,0,1,1,.2Z" style="fill:#fff"/></svg>